<svg xmlns="http://www.w3.org/2000/svg" width="640" height="420" viewBox="0 0 640 420">
  <metadata><?xpacket begin="﻿" id="W5M0MpCehiHzreSzNTczkc9d"?>
<x:xmpmeta xmlns:x="adobe:ns:meta/" x:xmptk="Adobe XMP Core 5.6-c138 79.159824, 2016/09/14-01:09:01        ">
   <rdf:RDF xmlns:rdf="http://www.w3.org/1999/02/22-rdf-syntax-ns#">
      <rdf:Description rdf:about=""/>
   </rdf:RDF>
</x:xmpmeta>
                                                                                                    
                                                                                                    
                                                                                                    
                                                                                                    
                                                                                                    
                                                                                                    
                                                                                                    
                                                                                                    
                                                                                                    
                                                                                                    
                                                                                                    
                                                                                                    
                                                                                                    
                                                                                                    
                                                                                                    
                                                                                                    
                                                                                                    
                                                                                                    
                                                                                                    
                                                                                                    
                           
<?xpacket end="w"?></metadata>
<defs>
    <style>
      .cls-1 {
        fill-rule: evenodd;
      }
    </style>
  </defs>
  <path id="Color_Fill_1" data-name="Color Fill 1" class="cls-1" d="M0,0H640V269H580l8-17c3.259-17.617-13.752-34.786-32-31l-18,6c0.384-7.33,1.368-17.032-3-20-9.29-5.814-24.564-2.044-38-4-27.733-4.038-134.635-4.021-152,5-0.323,23.562,2.777,43.217,6,62-114.742-.062-237.666-8.027-351,1V0ZM557,230c9.989,0.015,13.456,3,19,7,1.586,5.219,2.917,8.417,3,16-3.545,7.336-7.935,10.548-13,16l-34-1C537.109,251.184,542.681,237.788,557,230Z"/>
</svg>
